<svg xmlns="http://www.w3.org/2000/svg" width="933.333" height="933.333" version="1.0" viewBox="0 0 700 700"><g fill="#4a148c"><path d="M538.1 1.5c-9.1 2.1-20.4 7.7-28 14-9.2 7.6-81.4 80-81 81.2.2.6 39.2 40.1 86.7 87.9l86.3 86.9 43.3-43.5c42.8-43 43.4-43.6 47.4-52 9.9-20.8 9-43.1-2.5-62.5-5.1-8.5-91.8-95.7-102.1-102.5-13.7-9.3-34.2-13.1-50.1-9.5zM218.4 307.2C119.8 405.8 38.8 487.4 38.2 488.5c-.5 1.1-9.4 44.1-19.7 95.5C-.8 680.5-.9 681.4 2.4 687.9c3.4 6.5 11.9 12 18.6 12.1 5.4 0 187.4-36.7 191.2-38.5 3.5-1.8 360-357.4 359.6-358.7-.4-1.2-172.9-174.8-173.6-174.8-.4 0-81.3 80.7-179.8 179.2z"/></g></svg>